<mxfile host="app.diagrams.net" agent="Mozilla/5.0 (Windows NT 10.0; Win64; x64) AppleWebKit/537.36 (KHTML, like Gecko) Chrome/127.0.0.0 Safari/537.36 Edg/127.0.0.0" version="24.7.6">
  <diagram id="C5RBs43oDa-KdzZeNtuy" name="Page-1">
    <mxGraphModel dx="1456" dy="665" grid="1" gridSize="10" guides="1" tooltips="1" connect="1" arrows="1" fold="1" page="1" pageScale="1" pageWidth="827" pageHeight="1169" math="0" shadow="0">
      <root>
        <mxCell id="WIyWlLk6GJQsqaUBKTNV-0" />
        <mxCell id="WIyWlLk6GJQsqaUBKTNV-1" parent="WIyWlLk6GJQsqaUBKTNV-0" />
        <mxCell id="KJnSJdeTE4tSRhXk-nxL-1" value="基础数据表维护" style="swimlane;childLayout=stackLayout;resizeParent=1;resizeParentMax=0;startSize=30;html=1;" vertex="1" parent="WIyWlLk6GJQsqaUBKTNV-1">
          <mxGeometry x="60" y="20" width="580" height="220" as="geometry" />
        </mxCell>
        <mxCell id="KJnSJdeTE4tSRhXk-nxL-2" value="需求负责人" style="swimlane;startSize=30;html=1;" vertex="1" parent="KJnSJdeTE4tSRhXk-nxL-1">
          <mxGeometry y="30" width="190" height="190" as="geometry" />
        </mxCell>
        <mxCell id="KJnSJdeTE4tSRhXk-nxL-9" value="建表需求文档" style="rounded=1;whiteSpace=wrap;html=1;" vertex="1" parent="KJnSJdeTE4tSRhXk-nxL-2">
          <mxGeometry x="40" y="60" width="85" height="40" as="geometry" />
        </mxCell>
        <mxCell id="KJnSJdeTE4tSRhXk-nxL-3" value="项目经理" style="swimlane;startSize=30;html=1;" vertex="1" parent="KJnSJdeTE4tSRhXk-nxL-1">
          <mxGeometry x="190" y="30" width="200" height="190" as="geometry" />
        </mxCell>
        <mxCell id="KJnSJdeTE4tSRhXk-nxL-11" value="组织建表需求评审会议" style="rounded=1;whiteSpace=wrap;html=1;" vertex="1" parent="KJnSJdeTE4tSRhXk-nxL-3">
          <mxGeometry x="57.5" y="60" width="85" height="40" as="geometry" />
        </mxCell>
        <mxCell id="KJnSJdeTE4tSRhXk-nxL-4" value="表维护人" style="swimlane;startSize=30;html=1;" vertex="1" parent="KJnSJdeTE4tSRhXk-nxL-1">
          <mxGeometry x="390" y="30" width="190" height="190" as="geometry" />
        </mxCell>
        <mxCell id="KJnSJdeTE4tSRhXk-nxL-12" value="执行建(改)表" style="rounded=1;whiteSpace=wrap;html=1;" vertex="1" parent="KJnSJdeTE4tSRhXk-nxL-4">
          <mxGeometry x="60" y="60" width="85" height="40" as="geometry" />
        </mxCell>
        <mxCell id="KJnSJdeTE4tSRhXk-nxL-10" style="edgeStyle=orthogonalEdgeStyle;rounded=0;orthogonalLoop=1;jettySize=auto;html=1;entryX=0;entryY=0.5;entryDx=0;entryDy=0;" edge="1" parent="KJnSJdeTE4tSRhXk-nxL-1" source="KJnSJdeTE4tSRhXk-nxL-9" target="KJnSJdeTE4tSRhXk-nxL-11">
          <mxGeometry relative="1" as="geometry">
            <mxPoint x="230" y="110" as="targetPoint" />
          </mxGeometry>
        </mxCell>
        <mxCell id="KJnSJdeTE4tSRhXk-nxL-13" style="edgeStyle=orthogonalEdgeStyle;rounded=0;orthogonalLoop=1;jettySize=auto;html=1;entryX=0;entryY=0.5;entryDx=0;entryDy=0;" edge="1" parent="KJnSJdeTE4tSRhXk-nxL-1" source="KJnSJdeTE4tSRhXk-nxL-11" target="KJnSJdeTE4tSRhXk-nxL-12">
          <mxGeometry relative="1" as="geometry" />
        </mxCell>
      </root>
    </mxGraphModel>
  </diagram>
</mxfile>
